<?xml version="1.0" encoding="iso-8859-1"?>
<!-- Generator: Adobe Illustrator 19.0.0, SVG Export Plug-In . SVG Version: 6.00 Build 0)  -->
<svg version="1.1" id="Capa_1" xmlns="http://www.w3.org/2000/svg" xmlns:xlink="http://www.w3.org/1999/xlink" x="0px" y="0px"
	 viewBox="0 0 512 512" style="enable-background:new 0 0 512 512;" xml:space="preserve">
<path style="fill:#DDDFE6;" d="M476.55,259.611H255.672V39.389C134.124,39.566,35.628,138.063,35.45,259.611
	c0,0.11-0.004,0.219-0.004,0.328c0,121.699,98.569,220.372,220.226,220.55c0.109,0,0.219,0.004,0.328,0.004
	c121.809,0,220.554-98.745,220.554-220.554C476.554,259.829,476.55,259.72,476.55,259.611z"/>
<path style="fill:#BBBFCC;" d="M255.672,260.266V118.158c-78.155,0.178-141.457,63.585-141.457,141.781
	c0,0.109,0.004,0.219,0.004,0.328c0.177,78.045,63.408,141.275,141.453,141.452c0.109,0,0.219,0.004,0.328,0.004
	c78.196,0,141.602-63.303,141.781-141.457H255.672V260.266z"/>
<path style="fill:#8890A6;" d="M255.672,260.266v-63.335c-34.651,0.178-62.688,28.316-62.688,63.008c0,0.11,0.008,0.219,0.008,0.328
	c0.177,34.54,28.138,62.501,62.679,62.679c0.11,0,0.218,0.008,0.328,0.008c34.692,0,62.829-28.037,63.008-62.688h-63.334V260.266z"
	/>
<path style="fill:#99A0B3;" d="M256,330.831c-39.09,0-70.892-31.802-70.892-70.892c0-39.09,31.802-70.892,70.892-70.892
	c4.35,0,7.877,3.527,7.877,7.877c0,4.35-3.527,7.877-7.877,7.877c-30.403,0-55.138,24.735-55.138,55.138
	s24.736,55.138,55.138,55.138c17.642,0,33.797-8.14,44.322-22.332c2.592-3.495,7.527-4.225,11.019-1.634
	c3.494,2.592,4.226,7.525,1.634,11.019C299.647,320.101,278.348,330.831,256,330.831z"/>
<g>
	<path style="fill:#AAAFBF;" d="M194.749,139.912c-2.935,0-5.753-1.648-7.108-4.471c-1.882-3.922-0.227-8.628,3.694-10.51
		c20.267-9.723,42.023-14.654,64.665-14.654c11.112,0,22.195,1.224,32.94,3.638c4.245,0.954,6.913,5.168,5.959,9.413
		c-0.953,4.245-5.165,6.915-9.413,5.959c-9.613-2.161-19.535-3.256-29.486-3.256c-20.263,0-39.727,4.409-57.849,13.104
		C197.052,139.662,195.891,139.912,194.749,139.912z"/>
	<path style="fill:#AAAFBF;" d="M141.461,351.393c-2.428,0-4.823-1.12-6.366-3.23c-18.812-25.74-28.757-56.247-28.757-88.225
		c0-26.51,7.024-52.559,20.314-75.331c2.193-3.757,7.016-5.026,10.774-2.833c3.757,2.193,5.025,7.015,2.833,10.773
		c-11.884,20.366-18.166,43.669-18.166,67.391c0,28.613,8.894,55.905,25.722,78.929c2.567,3.512,1.801,8.44-1.711,11.008
		C144.701,350.899,143.073,351.393,141.461,351.393z"/>
	<path style="fill:#AAAFBF;" d="M256,409.6c-17.544,0-34.728-3.01-51.076-8.944c-4.089-1.485-6.2-6.003-4.716-10.092
		c1.485-4.088,6.006-6.198,10.092-4.715c14.62,5.307,29.995,7.998,45.7,7.998c31.748,0,62.533-11.307,86.684-31.839
		c3.314-2.818,8.286-2.415,11.103,0.899c2.818,3.314,2.415,8.286-0.899,11.103C325.891,396.96,291.483,409.6,256,409.6z"/>
	<path style="fill:#AAAFBF;" d="M256,488.369c-61.017,0-118.38-23.761-161.525-66.906S27.569,320.955,27.569,259.938
		S51.33,141.559,94.475,98.413S194.983,31.508,256,31.508c13.326,0,26.682,1.157,39.696,3.438c4.285,0.751,7.149,4.833,6.398,9.12
		c-0.751,4.285-4.833,7.15-9.12,6.398c-12.118-2.125-24.558-3.202-36.974-3.202c-117.271,0-212.677,95.406-212.677,212.677
		S138.729,472.615,256,472.615c57.625,0,111.575-22.67,151.912-63.835c3.043-3.105,8.03-3.158,11.139-0.112
		c3.106,3.045,3.158,8.032,0.112,11.139C375.84,464.021,317.893,488.369,256,488.369z"/>
	<path style="fill:#AAAFBF;" d="M437.109,393.71c-1.554,0-3.123-0.459-4.495-1.415c-3.569-2.485-4.448-7.395-1.961-10.966
		c24.875-35.718,38.024-77.695,38.024-121.391c0-4.35,3.527-7.877,7.877-7.877c4.35,0,7.877,3.527,7.877,7.877
		c0,46.931-14.126,92.021-40.851,130.397C442.049,392.533,439.599,393.71,437.109,393.71z"/>
</g>
<g>
	<path style="fill:#778099;" d="M302.769,252.062h-38.563V7.877c0-4.35-3.527-7.877-7.877-7.877c-4.35,0-7.877,3.527-7.877,7.877
		v244.185H11.815c-4.35,0-7.877,3.527-7.877,7.877c0,4.35,3.527,7.877,7.877,7.877h236.636v236.308c0,4.35,3.527,7.877,7.877,7.877
		c4.35,0,7.877-3.527,7.877-7.877V267.815h38.564c4.35,0,7.877-3.527,7.877-7.877C310.646,255.588,307.119,252.062,302.769,252.062z
		"/>
	<path style="fill:#778099;" d="M500.185,252.062h-69.415c-4.35,0-7.877,3.527-7.877,7.877c0,4.35,3.527,7.877,7.877,7.877h69.415
		c4.35,0,7.877-3.527,7.877-7.877C508.062,255.588,504.535,252.062,500.185,252.062z"/>
</g>
<path style="fill:#FF75AF;" d="M153.6,96.492c-26.06,0-47.262,21.201-47.262,47.262c0,32.428,39.989,72.791,41.692,74.493
	c3.036,3.035,8.104,3.035,11.139,0c1.703-1.702,41.693-42.065,41.693-74.493C200.862,117.693,179.66,96.492,153.6,96.492z"/>
<path style="fill:#FF599E;" d="M122.092,141.785c0-21.31,14.179-39.363,33.596-45.239c-0.693-0.031-1.388-0.053-2.088-0.053
	c-26.06,0-47.262,21.201-47.262,47.262c0,32.428,39.989,72.791,41.692,74.493c3.036,3.035,8.104,3.035,11.139,0
	c0.263-0.263,1.439-1.448,3.237-3.381C155.079,207.234,122.092,171.237,122.092,141.785z"/>
<path style="fill:#FFA8CC;" d="M153.6,121.108c-12.487,0-22.646,10.158-22.646,22.646S141.113,166.4,153.6,166.4
	c12.487,0,22.646-10.158,22.646-22.646S166.087,121.108,153.6,121.108z"/>
<path style="fill:#FF75AF;" d="M177.231,315.077c-26.06,0-47.262,21.201-47.262,47.262c0,32.428,39.989,72.791,41.692,74.493
	c3.036,3.035,8.104,3.035,11.139,0c1.703-1.702,41.693-42.065,41.693-74.493C224.492,336.278,203.291,315.077,177.231,315.077z"/>
<path style="fill:#FF599E;" d="M187.415,430.955c-1.702-1.703-41.692-42.066-41.692-74.493c0-17.261,9.306-32.382,23.158-40.632
	c-22.09,3.956-38.912,23.298-38.912,46.508c0,32.428,39.989,72.791,41.692,74.493c3.036,3.035,8.104,3.035,11.139,0
	c0.346-0.346,2.269-2.284,5.114-5.426C187.744,431.263,187.575,431.116,187.415,430.955z"/>
<path style="fill:#FFA8CC;" d="M177.231,339.692c-12.487,0-22.646,10.158-22.646,22.646s10.159,22.646,22.646,22.646
	c12.487,0,22.646-10.158,22.646-22.646S189.718,339.692,177.231,339.692z"/>
<path style="fill:#3AC274;" d="M366.277,204.8c-39.09,0-70.892,31.802-70.892,70.892c0,49.95,62.655,113.18,65.322,115.847
	c3.036,3.034,8.104,3.034,11.14,0c2.667-2.667,65.322-65.897,65.322-115.847C437.169,236.602,405.367,204.8,366.277,204.8z"/>
<path style="fill:#15B259;" d="M376.461,383.694c-2.667-2.667-65.322-65.897-65.322-115.847c0-24.624,12.626-46.347,31.736-59.059
	c-27.622,9.691-47.49,36.013-47.49,66.905c0,49.95,62.655,113.18,65.322,115.847c3.036,3.035,8.104,3.035,11.14,0
	c0.468-0.468,2.784-2.802,6.277-6.594C377.527,384.608,376.964,384.197,376.461,383.694z"/>
<path style="fill:#B6F1CF;" d="M366.277,236.308c-21.717,0-39.385,17.668-39.385,39.385s17.668,39.385,39.385,39.385
	s39.385-17.668,39.385-39.385S387.994,236.308,366.277,236.308z"/>
<g>
</g>
<g>
</g>
<g>
</g>
<g>
</g>
<g>
</g>
<g>
</g>
<g>
</g>
<g>
</g>
<g>
</g>
<g>
</g>
<g>
</g>
<g>
</g>
<g>
</g>
<g>
</g>
<g>
</g>
</svg>
